# xmcd
#
# Track frame offsets:
#	11436
#	44331
#	63412
#	75454
#	96933
#	107747
#	129462
#	152946
#	167798
#	191122
#	214633
#
# Disc length: 3165 seconds
#
# Revision: 0
# Processed by: cddbd v1.5.2PL0 Copyright (c) Steve Scherf et al.
# Submitted via: dBpowerAMP V4.0
#
DISCID=9b0bc50b
DTITLE=Digging Roots - Seeds
DYEAR=1900
DGENRE=Blues
TTITLE0=Wake Up and Rise
TTITLE1=Let Me Be
TTITLE2=Dance Hall Blues
TTITLE3=80 Year Old Mooshim
TTITLE4=Why Don't You Do Right
TTITLE5=Going back
TTITLE6=500 Years O' Blues
TTITLE7=Mama is a Revolutionary
TTITLE8=Memego
TTITLE9=Rebel
TTITLE10=Brighter
EXTD=
EXTT0=
EXTT1=
EXTT2=
EXTT3=
EXTT4=
EXTT5=
EXTT6=
EXTT7=
EXTT8=
EXTT9=
EXTT10=
PLAYORDER=
